<svg xmlns="http://www.w3.org/2000/svg" width="50" height="50"><g fill="#fff"><path d="M5.708 18.381h8.501v25.525H5.708zM42.104 20.712c-1.786-1.949-4.146-2.924-7.083-2.924-1.081 0-2.064.133-2.95.398-.883.268-1.63.641-2.241 1.121-.608.48-1.094.927-1.454 1.34a11.04 11.04 0 0 0-1.005 1.362V18.38h-8.475l.025 1.235c.018.824.026 3.367.026 7.625s-.018 9.813-.052 16.665h8.475V29.662c0-.877.094-1.572.283-2.087a5.456 5.456 0 0 1 1.636-2.201c.73-.594 1.635-.89 2.719-.89 1.476 0 2.563.511 3.257 1.532.696 1.021 1.044 2.434 1.044 4.236v13.651h8.474V29.276c-.001-3.761-.893-6.616-2.679-8.564zM10.009 6.094c-1.425 0-2.579.417-3.465 1.249-.884.832-1.326 1.885-1.326 3.156 0 1.252.43 2.301 1.289 3.143.857.841 1.991 1.261 3.399 1.261h.052c1.442 0 2.606-.42 3.49-1.261.885-.841 1.317-1.889 1.3-3.143-.017-1.271-.454-2.323-1.313-3.156-.858-.833-2.001-1.249-3.426-1.249z"/></g></svg>