<svg xmlns="http://www.w3.org/2000/svg" width="50" height="50"><path fill="#fff" d="M4.852 25.328l8.67 3.238 3.355 10.79a1.02 1.02 0 0 0 1.622.488l4.833-3.938a1.441 1.441 0 0 1 1.758-.049l8.715 6.327c.601.437 1.45.107 1.602-.617l6.385-30.714a1.022 1.022 0 0 0-1.367-1.162L4.842 23.416c-.878.339-.871 1.583.01 1.912zm11.484 1.514l16.943-10.436c.307-.187.618.225.357.467L19.653 29.872a2.888 2.888 0 0 0-.898 1.734l-.477 3.53c-.062.471-.725.519-.854.061l-1.832-6.437a1.703 1.703 0 0 1 .744-1.918z"/></svg>