<svg xmlns="http://www.w3.org/2000/svg" width="50" height="50"><path fill="#fff" d="M46.227 11.839a17.48 17.48 0 0 1-5.002 1.371 8.74 8.74 0 0 0 3.83-4.815 17.48 17.48 0 0 1-5.535 2.114 8.687 8.687 0 0 0-6.355-2.75c-4.809 0-8.71 3.899-8.71 8.707 0 .683.077 1.348.227 1.986-7.236-.365-13.655-3.834-17.949-9.101a8.646 8.646 0 0 0-1.178 4.376 8.708 8.708 0 0 0 3.871 7.248 8.726 8.726 0 0 1-3.947-1.094v.109c0 4.218 3.005 7.738 6.987 8.541a8.88 8.88 0 0 1-2.294.305 8.463 8.463 0 0 1-1.641-.162 8.715 8.715 0 0 0 8.134 6.049A17.473 17.473 0 0 1 5.85 38.444c-.702 0-1.396-.043-2.076-.117a24.607 24.607 0 0 0 13.348 3.916c16.021 0 24.777-13.268 24.777-24.778l-.027-1.128a17.408 17.408 0 0 0 4.355-4.498z"/></svg>