<svg xmlns="http://www.w3.org/2000/svg" width="63" height="63" viewBox="0 0 63 63">
  <g id="ic_autentification" transform="translate(-418 -2122)">
    <g id="ic_auth" transform="translate(0.5 0.594)">
      <path id="Path_7124" data-name="Path 7124" d="M0,14.906v-14H14" transform="translate(418.5 2121.5)" fill="none" stroke="#fff" stroke-width="2"/>
      <path id="Path_7125" data-name="Path 7125" d="M0,14.906v-14H14" transform="translate(480.406 2122.406) rotate(90)" fill="none" stroke="#fff" stroke-width="2"/>
      <path id="Path_7126" data-name="Path 7126" d="M0,14.906v-14H14" transform="translate(479.5 2184.313) rotate(180)" fill="none" stroke="#fff" stroke-width="2"/>
      <path id="Path_7127" data-name="Path 7127" d="M0,14.906v-14H14" transform="translate(417.594 2183.406) rotate(-90)" fill="none" stroke="#fff" stroke-width="2"/>
    </g>
    <path id="face-scanner" d="M25.1,12.965a10.946,10.946,0,0,0,6.6,1.61,9.818,9.818,0,0,0-4.918-4.9A12.94,12.94,0,0,1,25.1,12.965Zm7.332,4.149a13.525,13.525,0,0,1-9.063-2.159,13.517,13.517,0,0,1-10.518,3.6c0,.748.116,1.5-.659,1.947a2.931,2.931,0,0,0-1.084,2.323H34.265a3.038,3.038,0,0,0-1.011-2.278,1.3,1.3,0,0,1-.728-1.162,15.014,15.014,0,0,0-.093-2.268Zm1.511,22.344a3.7,3.7,0,0,1-3.722-3.648V32.788a15.972,15.972,0,0,0,3.207-3.779,5.632,5.632,0,0,0,3.116-3.579h6.125a1.3,1.3,0,1,0,0-2.606H36.918a5.713,5.713,0,0,0-1.733-4.082,12.376,12.376,0,0,0-12.5-12.553,12.377,12.377,0,0,0-12.5,12.548,5.713,5.713,0,0,0-1.738,4.087H2.7a1.3,1.3,0,1,0,0,2.606H8.828a5.765,5.765,0,0,0,2.73,3.4,13.7,13.7,0,0,0,3.6,4.422V35.81a3.7,3.7,0,0,1-3.722,3.648,1.3,1.3,0,1,0,0,2.606c4.133,0,6.381-3.166,6.381-6.951a10.464,10.464,0,0,0,4.711,1.626A10.759,10.759,0,0,0,27.563,34.8c0,3.894,1.969,7.263,6.381,7.263a1.3,1.3,0,1,0,0-2.606ZM13.179,15.974A9.861,9.861,0,0,1,24.242,8.914a10.718,10.718,0,0,1-11.063,7.059ZM25.7,32.881a7.513,7.513,0,0,1-3.174,1.252,6.386,6.386,0,0,1-2.5-.792A17,17,0,0,1,16.7,31.127a10.711,10.711,0,0,1-2.932-3.813,1.317,1.317,0,0,0-.867-.731,2.655,2.655,0,0,1-1.191-1.154H33.67a2.357,2.357,0,0,1-1.4,1.209,1.323,1.323,0,0,0-.935.706A15.719,15.719,0,0,1,25.7,32.881ZM0,39.588Z" transform="translate(426 2126.946)" fill="#fff" fill-rule="evenodd"/>
  </g>
</svg>
