<svg xmlns="http://www.w3.org/2000/svg" width="62.701" height="64" viewBox="0 0 62.701 64">
  <g id="MIgrantCoin" transform="translate(-0.019)">
    <path id="Path_8342" data-name="Path 8342" d="M57.739,39.041A29.629,29.629,0,0,0,50.69,8.8a.776.776,0,0,0-.22-.22,29.571,29.571,0,0,0-41.653,0A.778.778,0,0,0,8.6,8.8a29.572,29.572,0,0,0,0,41.653.822.822,0,0,0,.1.121.9.9,0,0,0,.121.1,29.631,29.631,0,0,0,28.352,7.612,14.239,14.239,0,0,0,2.787,2.823A14.176,14.176,0,0,0,57.739,39.04ZM30.506,57.509V55.4a.863.863,0,0,0-1.726,0v2.111a27.8,27.8,0,0,1-18.235-7.566l1.483-1.483a.863.863,0,0,0-1.22-1.221L9.325,48.723A27.8,27.8,0,0,1,1.758,30.487H3.87a.863.863,0,1,0,0-1.726H1.758A27.8,27.8,0,0,1,9.325,10.527l1.484,1.484a.863.863,0,0,0,1.22-1.22L10.545,9.307A27.8,27.8,0,0,1,28.78,1.74V3.851a.863.863,0,1,0,1.726,0V1.74A27.8,27.8,0,0,1,48.741,9.307L47.258,10.79a.863.863,0,0,0,1.22,1.221l1.483-1.483a27.8,27.8,0,0,1,7.567,18.235H55.417a.863.863,0,0,0,0,1.726h2.111a27.8,27.8,0,0,1-1.247,7.457,13.97,13.97,0,0,0-6.117-2.206A21.408,21.408,0,1,0,34.381,50.5a13.945,13.945,0,0,0,1.8,6.251A27.929,27.929,0,0,1,30.506,57.509Zm3.909-8.916c0,.043-.005.088-.008.131A19.66,19.66,0,1,1,48.386,35.647,14.173,14.173,0,0,0,34.415,48.594ZM48.541,62.274A12.439,12.439,0,0,1,36.088,49.821c0-.36.016-.724.046-1.08A12.454,12.454,0,1,1,48.541,62.274Zm0,0" fill="#fff"/>
    <path id="Path_8343" data-name="Path 8343" d="M303.183,315.171l-6.724,6.723-3.561-3.561a.863.863,0,0,0-1.22,1.221l4.171,4.171a.863.863,0,0,0,1.221,0l7.333-7.333a.863.863,0,1,0-1.22-1.22Zm0,0" transform="translate(-249.5 -269.626)" fill="#fff"/>
    <path id="Union_10" data-name="Union 10" d="M20.544,20.347a2.187,2.187,0,0,1-2.186-2.187V7.483l-6.329,6.17-1.546-1.508a2.093,2.093,0,0,1,0-3.014l8.5-8.289a2.227,2.227,0,0,1,3.092,0,2.1,2.1,0,0,1,.64,1.533,2.213,2.213,0,0,1,.012.231V20.347ZM0,16.457V2.315a2.185,2.185,0,0,1,.24-1A2.171,2.171,0,0,1,.651.693a2.206,2.206,0,0,1,3.1-.108L8.565,5.042a2.167,2.167,0,0,1,.109,3.079l-1.5,1.593L4.388,7.131v7.132a2.194,2.194,0,0,1-2.194,2.194Z" transform="translate(18.691 18.978)" fill="#fff"/>
  </g>
</svg>
