<svg xmlns="http://www.w3.org/2000/svg" viewBox="0 0 64 63.442">
  <g id="ic_processing" transform="translate(0 -2.138)">
    <g id="Group_1670" data-name="Group 1670" transform="translate(0 2.138)">
      <path id="XMLID_698_" class="cls-1" d="M211.677,31.685H214a14.1,14.1,0,0,0,2.1,5.079l-1.645,1.645a1.505,1.505,0,0,0,0,2.128l1.789,1.789a1.505,1.505,0,0,0,2.128,0l1.645-1.645a13.97,13.97,0,0,0,5.079,2.1v2.324a1.5,1.5,0,0,0,1.5,1.5h2.533a1.5,1.5,0,0,0,1.5-1.5V42.783a14.1,14.1,0,0,0,5.079-2.1l1.645,1.645a1.505,1.505,0,0,0,2.128,0l1.789-1.789a1.505,1.505,0,0,0,0-2.128l-1.645-1.645a13.97,13.97,0,0,0,2.1-5.079h2.324a1.5,1.5,0,0,0,1.5-1.5v-2.52a1.5,1.5,0,0,0-1.5-1.5h-2.324a14.1,14.1,0,0,0-2.1-5.079l1.645-1.645a1.505,1.505,0,0,0,0-2.128l-1.8-1.789a1.505,1.505,0,0,0-2.128,0L235.7,17.166a13.97,13.97,0,0,0-5.079-2.1V12.739a1.5,1.5,0,0,0-1.5-1.5h-2.533a1.5,1.5,0,0,0-1.5,1.5v2.324a14.1,14.1,0,0,0-5.079,2.1l-1.632-1.645a1.505,1.505,0,0,0-2.128,0l-1.789,1.789a1.505,1.505,0,0,0,0,2.128l1.645,1.645a13.97,13.97,0,0,0-2.1,5.079h-2.324a1.5,1.5,0,0,0-1.5,1.5V30.2A1.491,1.491,0,0,0,211.677,31.685Zm16.177-9.166a6.411,6.411,0,1,1-6.411,6.411A6.414,6.414,0,0,1,227.854,22.519Z" transform="translate(-182.733 -10.05)"/>
      <path id="Path_7145" data-name="Path 7145" class="cls-2" d="M45.212,147.815a.879.879,0,0,1-1.149.483l-2.951-1.227a1.172,1.172,0,0,0-1.436.431,18.065,18.065,0,0,1-5.027,5.027,1.172,1.172,0,0,0-.431,1.436l1.214,2.951a.879.879,0,0,1-.483,1.149l-3.212,1.345a.879.879,0,0,1-1.149-.483l-1.227-2.951a1.173,1.173,0,0,0-1.319-.705,18.064,18.064,0,0,1-7.1,0,1.179,1.179,0,0,0-1.319.705l-1.227,2.951a.89.89,0,0,1-1.149.483l-3.212-1.332a.89.89,0,0,1-.483-1.162l1.227-2.951a1.172,1.172,0,0,0-.431-1.436A18.065,18.065,0,0,1,9.319,147.5a1.172,1.172,0,0,0-1.436-.431L4.932,148.3a.875.875,0,0,1-1.149-.483L2.451,144.6a.879.879,0,0,1,.483-1.149l2.951-1.227a1.173,1.173,0,0,0,.705-1.319,18.065,18.065,0,0,1,0-7.1,1.179,1.179,0,0,0-.705-1.319L2.934,131.26a.89.89,0,0,1-.483-1.162l1.332-3.212a.89.89,0,0,1,1.162-.483L7.9,127.63a1.172,1.172,0,0,0,1.436-.431,18.065,18.065,0,0,1,5.027-5.027,1.172,1.172,0,0,0,.431-1.436l-1.227-2.951a.89.89,0,0,1,.483-1.162l3.212-1.332a.879.879,0,0,1,1.149.483l1.227,2.951a1.18,1.18,0,1,0,2.18-.9l-1.227-2.951a3.257,3.257,0,0,0-4.243-1.763l-3.212,1.332a3.24,3.24,0,0,0-1.763,1.763,3.3,3.3,0,0,0,0,2.494l.862,2.076A20.549,20.549,0,0,0,7.909,125.1l-2.076-.862a3.3,3.3,0,0,0-2.494,0A3.24,3.24,0,0,0,1.577,126L.245,129.21a3.3,3.3,0,0,0,0,2.494,3.24,3.24,0,0,0,1.763,1.763l2.076.862a19.977,19.977,0,0,0,0,6.11l-2.076.862a3.257,3.257,0,0,0-1.763,4.243l1.332,3.173a3.252,3.252,0,0,0,4.243,1.763l2.076-.862a20.549,20.549,0,0,0,4.322,4.322l-.862,2.076a3.3,3.3,0,0,0,0,2.494,3.241,3.241,0,0,0,1.763,1.763L16.33,161.6a3.252,3.252,0,0,0,4.243-1.763l.862-2.076a19.977,19.977,0,0,0,6.11,0l.862,2.076a3.263,3.263,0,0,0,3,2.011,3.187,3.187,0,0,0,1.24-.248l3.212-1.332a3.257,3.257,0,0,0,1.763-4.243l-.862-2.076a20.549,20.549,0,0,0,4.322-4.322l2.076.862a3.242,3.242,0,0,0,4.243-1.763l1.332-3.212a3.3,3.3,0,0,0,0-2.494,3.241,3.241,0,0,0-1.763-1.763l-2.951-1.227a1.18,1.18,0,1,0-.9,2.18l2.951,1.227a.89.89,0,0,1,.483,1.162Z" transform="translate(0 -98.409)"/>
      <path id="Path_7146" data-name="Path 7146" class="cls-2" d="M117.865,222.8a1.182,1.182,0,0,0-.013-2.363h-.013a10.439,10.439,0,0,0,.065,20.877h.078A10.431,10.431,0,0,0,128.349,230.8a1.181,1.181,0,0,0-1.188-1.175h-.013a1.181,1.181,0,0,0-1.175,1.188,8.069,8.069,0,0,1-8.017,8.134h-.065a8.078,8.078,0,0,1-5.745-13.749A8.155,8.155,0,0,1,117.865,222.8Z" transform="translate(-93.439 -191.936)"/>
      <path id="Path_7147" data-name="Path 7147" class="cls-2" d="M236.306,24.961a2.694,2.694,0,0,0,2.69-2.69v-2.52a2.694,2.694,0,0,0-2.69-2.69h-1.371a15.233,15.233,0,0,0-1.541-3.721l.979-.979a2.7,2.7,0,0,0,0-3.8l-1.789-1.789a2.668,2.668,0,0,0-1.893-.783,2.624,2.624,0,0,0-1.893.783l-.979.979A14.939,14.939,0,0,0,224.1,6.212V4.828a2.694,2.694,0,0,0-2.69-2.69h-2.533a2.694,2.694,0,0,0-2.69,2.69V6.212a15.232,15.232,0,0,0-3.721,1.541l-.979-.979a2.668,2.668,0,0,0-1.893-.783,2.624,2.624,0,0,0-1.893.783L205.91,8.562a2.7,2.7,0,0,0,0,3.8l.979.979a14.938,14.938,0,0,0-1.541,3.721h-1.384a2.694,2.694,0,0,0-2.69,2.69v2.533a2.694,2.694,0,0,0,2.69,2.69h1.384a15.232,15.232,0,0,0,1.541,3.721l-.979.979a2.7,2.7,0,0,0,0,3.8l1.789,1.789a2.668,2.668,0,0,0,1.893.783,2.624,2.624,0,0,0,1.893-.783l.979-.979a14.938,14.938,0,0,0,3.721,1.541v1.384a2.694,2.694,0,0,0,2.69,2.69h2.533a2.694,2.694,0,0,0,2.69-2.69v-1.4a15.232,15.232,0,0,0,3.721-1.541l.979.979a2.668,2.668,0,0,0,1.893.783,2.624,2.624,0,0,0,1.893-.783l1.789-1.789a2.7,2.7,0,0,0,0-3.8l-.979-.979a14.938,14.938,0,0,0,1.541-3.721Zm-3.473-1.41a12.719,12.719,0,0,1-1.932,4.661,1.184,1.184,0,0,0,.144,1.488l1.645,1.645a.316.316,0,0,1,0,.457L230.9,33.591a.311.311,0,0,1-.222.091.293.293,0,0,1-.222-.091l-1.645-1.645a1.17,1.17,0,0,0-1.488-.144,12.947,12.947,0,0,1-4.661,1.932,1.189,1.189,0,0,0-.953,1.162v2.324a.318.318,0,0,1-.313.313h-2.533a.318.318,0,0,1-.313-.313V34.9a1.2,1.2,0,0,0-.953-1.162,12.719,12.719,0,0,1-4.661-1.932,1.193,1.193,0,0,0-.653-.2,1.156,1.156,0,0,0-.836.353L209.8,33.6a.311.311,0,0,1-.222.091.293.293,0,0,1-.222-.091l-1.789-1.789a.316.316,0,0,1,0-.457l1.645-1.645a1.17,1.17,0,0,0,.144-1.488,12.946,12.946,0,0,1-1.932-4.661,1.189,1.189,0,0,0-1.162-.953h-2.324a.318.318,0,0,1-.313-.313V19.751a.318.318,0,0,1,.313-.313h2.324a1.2,1.2,0,0,0,1.162-.953,12.719,12.719,0,0,1,1.932-4.661,1.184,1.184,0,0,0-.144-1.488l-1.645-1.645a.311.311,0,0,1-.091-.222.293.293,0,0,1,.091-.222l1.776-1.8a.311.311,0,0,1,.222-.091.293.293,0,0,1,.222.091l1.645,1.645a1.17,1.17,0,0,0,1.488.144A12.947,12.947,0,0,1,217.583,8.3a1.189,1.189,0,0,0,.953-1.162V4.828a.318.318,0,0,1,.313-.313h2.533a.318.318,0,0,1,.313.313V7.152a1.2,1.2,0,0,0,.953,1.162,12.719,12.719,0,0,1,4.661,1.932A1.184,1.184,0,0,0,228.8,10.1l1.645-1.645a.311.311,0,0,1,.222-.091.293.293,0,0,1,.222.091l1.789,1.789a.316.316,0,0,1,0,.457l-1.645,1.645a1.17,1.17,0,0,0-.144,1.488A12.946,12.946,0,0,1,232.82,18.5a1.189,1.189,0,0,0,1.162.953h2.324a.318.318,0,0,1,.313.313V22.3a.318.318,0,0,1-.313.313h-2.324A1.138,1.138,0,0,0,232.833,23.551Z" transform="translate(-174.995 -2.138)"/>
      <path id="Path_7148" data-name="Path 7148" class="cls-2" d="M295.161,88.538a7.586,7.586,0,1,0,7.586,7.586A7.592,7.592,0,0,0,295.161,88.538Zm0,12.808a5.223,5.223,0,1,1,5.223-5.223A5.221,5.221,0,0,1,295.161,101.346Z" transform="translate(-250.028 -77.257)"/>
    </g>
  </g>
</svg>
